<?xml version="1.0" standalone="no"?>
<!DOCTYPE svg PUBLIC "-//W3C//DTD SVG 20010904//EN"
 "http://www.w3.org/TR/2001/REC-SVG-20010904/DTD/svg10.dtd">
<svg version="1.0" xmlns="http://www.w3.org/2000/svg"
 width="178.000000pt" height="175.000000pt" viewBox="0 0 178.000000 175.000000"
 preserveAspectRatio="xMidYMid meet">

<g transform="translate(0.000000,175.000000) scale(0.100000,-0.100000)"
fill="#000000" stroke="none">
<path d="M705 1624 c-99 -24 -252 -104 -324 -171 -47 -43 -63 -64 -58 -76 10
-25 23 -21 70 21 65 59 106 87 182 125 112 55 190 72 345 72 116 0 135 2 138
16 2 10 -6 19 -20 23 -43 11 -272 5 -333 -10z"/>
<path d="M1187 1579 c-28 -16 -20 -27 41 -58 144 -73 263 -193 332 -336 45
-94 58 -139 74 -255 10 -75 13 -85 31 -85 18 0 20 5 16 70 -14 270 -184 525
-436 653 -29 14 -46 17 -58 11z"/>
<path d="M883 1469 c-19 -19 -3 -39 31 -39 61 -1 169 -30 242 -66 160 -81 270
-236 302 -427 13 -82 18 -97 34 -97 15 0 18 8 18 56 0 243 -209 498 -458 558
-89 22 -156 28 -169 15z"/>
<path d="M682 1435 c-91 -33 -167 -82 -231 -150 -71 -77 -101 -129 -82 -147
11 -11 18 -7 40 21 77 101 144 160 224 199 45 22 94 45 110 51 28 11 36 35 14
44 -7 2 -40 -6 -75 -18z"/>
<path d="M770 1281 c-82 -27 -130 -54 -182 -105 -138 -137 -173 -338 -90 -516
33 -72 131 -169 204 -203 70 -33 193 -56 209 -40 21 21 2 43 -38 43 -116 0
-254 85 -319 196 -53 90 -69 219 -39 317 31 102 129 211 229 252 237 99 510
-58 546 -315 10 -69 15 -81 35 -73 32 11 13 140 -33 229 -50 97 -162 188 -268
217 -77 22 -184 21 -254 -2z"/>
<path d="M785 1106 c-87 -40 -143 -112 -160 -209 -9 -44 9 -75 31 -56 8 6 14
23 14 38 1 37 32 101 68 137 110 110 299 78 363 -61 25 -54 25 -144 0 -193
-37 -72 -119 -131 -182 -132 -35 0 -55 -23 -35 -39 23 -19 116 4 168 41 57 42
74 63 98 126 40 105 19 211 -59 291 -79 81 -204 105 -306 57z"/>
<path d="M833 936 c-74 -62 -34 -176 62 -179 57 -2 112 53 103 102 -5 27 -37
25 -44 -3 -14 -59 -76 -73 -104 -24 -18 33 -8 54 36 78 36 21 38 44 3 48 -17
2 -37 -6 -56 -22z"/>
<path d="M287 873 c-25 -25 14 -209 65 -306 47 -90 174 -214 265 -260 124 -61
293 -86 301 -45 4 19 -1 20 -118 36 -237 33 -439 247 -466 495 -8 73 -25 103
-47 80z"/>
<path d="M120 721 c0 -36 42 -156 81 -232 122 -234 351 -389 620 -418 52 -5
75 -4 87 6 16 12 16 14 0 27 -10 7 -51 16 -92 19 -87 6 -223 50 -302 98 -166
100 -294 278 -344 477 -8 31 -16 42 -30 42 -13 0 -20 -7 -20 -19z"/>
<path d="M1456 725 c-9 -9 -16 -22 -16 -28 0 -25 -69 -154 -109 -204 -46 -59
-126 -121 -198 -155 -48 -23 -63 -50 -31 -56 23 -4 124 48 186 98 57 44 135
143 160 200 18 44 29 73 30 80 0 3 5 17 11 32 13 35 -8 57 -33 33z"/>
<path d="M1244 652 c-5 -4 -22 -23 -36 -42 -15 -20 -47 -51 -72 -70 -47 -35
-57 -56 -31 -66 21 -8 113 63 149 114 33 49 27 90 -10 64z"/>
</g>
</svg>
